<svg width="60" height="60" viewBox="0 0 60 60" fill="none" xmlns="http://www.w3.org/2000/svg">
<g clip-path="url(#clip0_42_1924)">
<circle cx="30" cy="30" r="30" fill="#E6F3FF"/>
<path d="M44.279 26.2191L40.6619 22.5548V16.682C40.6607 15.8256 40.3199 15.0046 39.7143 14.399C39.1088 13.7934 38.2878 13.4527 37.4314 13.4514H22.5688C21.7124 13.4527 20.8914 13.7934 20.2859 14.399C19.6803 15.0046 19.3395 15.8256 19.3383 16.682V22.5548L15.7212 26.2191C15.1232 26.8224 14.7886 27.638 14.7905 28.4875V42.4982C14.7914 43.1614 15.0552 43.7973 15.5242 44.2663C15.9932 44.7353 16.6291 44.9991 17.2923 45H42.7079C43.3711 44.9991 44.007 44.7353 44.476 44.2663C44.945 43.7973 45.2088 43.1614 45.2097 42.4982V28.4875C45.2116 27.638 44.877 26.8224 44.279 26.2191ZM43.3025 26.1292L40.6619 28.8108V23.4539L43.3025 26.1292ZM22.5688 14.0824H37.4314C38.1207 14.0828 38.7817 14.3568 39.2691 14.8443C39.7565 15.3317 40.0305 15.9927 40.031 16.682V29.4434L35.1693 34.3681L33.8443 33.0304C33.3407 32.523 32.7418 32.1203 32.0819 31.8455C31.4219 31.5707 30.7142 31.4292 29.9993 31.4292C29.2845 31.4292 28.5767 31.5707 27.9168 31.8455C27.2568 32.1203 26.6579 32.523 26.1543 33.0304L24.8293 34.3681L19.9692 29.445V16.682C19.9696 15.9927 20.2437 15.3317 20.7311 14.8443C21.2185 14.3568 21.8795 14.0828 22.5688 14.0824ZM19.3383 28.8061L16.6961 26.1245L19.3383 23.4428V28.8061ZM15.4215 28.4906C15.42 27.8071 15.6895 27.1508 16.1708 26.6655L16.2528 26.5819L24.3845 34.8193L15.737 43.5345C15.5311 43.2281 15.4213 42.8673 15.4215 42.4982V28.4906ZM17.2923 44.369C16.8875 44.3684 16.4938 44.2361 16.1708 43.992L26.6023 33.4753C27.0472 33.027 27.5764 32.6712 28.1594 32.4284C28.7424 32.1856 29.3677 32.0606 29.9993 32.0606C30.6309 32.0606 31.2562 32.1856 31.8392 32.4284C32.4222 32.6712 32.9514 33.027 33.3963 33.4753L43.8278 43.9936C43.5053 44.2372 43.1121 44.369 42.7079 44.369H17.2923ZM44.5818 42.4982C44.5819 42.8678 44.4721 43.2291 44.2664 43.5361L35.6173 34.8161L43.749 26.5788L43.8326 26.6624C44.3139 27.1477 44.5833 27.8039 44.5818 28.4875V42.4982Z" fill="#153D6E" stroke="#153D6E" stroke-width="0.2"/>
<path d="M30.1027 28.191H32.6818C32.7655 28.191 32.8457 28.1577 32.9049 28.0986C32.964 28.0394 32.9973 27.9592 32.9973 27.8755C32.9973 27.7918 32.964 27.7116 32.9049 27.6524C32.8457 27.5933 32.7655 27.56 32.6818 27.56H30.1027C27.5015 27.56 25.2553 25.4116 25.1969 22.8687C25.1816 22.2191 25.2982 21.573 25.5398 20.9698C25.7814 20.3665 26.1429 19.8185 26.6024 19.359C27.0619 18.8995 27.6099 18.538 28.2132 18.2964C28.8164 18.0548 29.4625 17.9381 30.1122 17.9535C32.655 18.0118 34.8034 20.2581 34.8034 22.8593V23.6101C34.8034 23.903 34.6871 24.1838 34.48 24.3909C34.2729 24.598 33.9921 24.7143 33.6992 24.7143C33.4064 24.7143 33.1255 24.598 32.9184 24.3909C32.7114 24.1838 32.595 23.903 32.595 23.6101V22.7583C32.5976 22.1386 32.3788 21.5384 31.9781 21.0657C31.5774 20.593 31.0211 20.2789 30.4094 20.1799C29.7977 20.0809 29.1707 20.2036 28.6414 20.5258C28.112 20.848 27.7151 21.3486 27.5221 21.9374C27.3291 22.5263 27.3526 23.1647 27.5885 23.7377C27.8243 24.3108 28.257 24.7808 28.8086 25.0631C29.3603 25.3455 29.9946 25.4217 30.5973 25.2779C31.2001 25.1341 31.7318 24.7799 32.0966 24.279C32.2492 24.6519 32.5268 24.96 32.8818 25.1505C33.2369 25.3411 33.6471 25.4021 34.0422 25.3232C34.4374 25.2443 34.7927 25.0304 35.0473 24.7181C35.3019 24.4058 35.4399 24.0146 35.4375 23.6117V22.8609C35.4344 19.919 32.9973 17.3951 30.1263 17.3225C29.3915 17.3055 28.6608 17.4376 27.9785 17.711C27.2961 17.9844 26.6763 18.3934 26.1566 18.9132C25.6368 19.4329 25.2278 20.0527 24.9544 20.735C24.681 21.4174 24.5489 22.1481 24.5659 22.8829C24.6369 25.7554 27.1608 28.191 30.1027 28.191ZM30.0002 24.7206C29.6124 24.7206 29.2334 24.6057 28.911 24.3903C28.5886 24.1749 28.3373 23.8688 28.1888 23.5106C28.0404 23.1524 28.0014 22.7583 28.077 22.378C28.1525 21.9977 28.3391 21.6483 28.6131 21.374C28.8872 21.0997 29.2364 20.9129 29.6167 20.837C29.9969 20.7612 30.3911 20.7998 30.7494 20.948C31.1077 21.0961 31.414 21.3472 31.6297 21.6694C31.8453 21.9917 31.9606 22.3706 31.9609 22.7583C31.9596 23.2777 31.7526 23.7753 31.385 24.1423C31.0175 24.5092 30.5195 24.7155 30.0002 24.7159V24.7206Z" fill="#153D6E" stroke="#153D6E" stroke-width="0.2"/>
</g>
<defs>
<clipPath id="clip0_42_1924">
<rect width="60" height="60" fill="white"/>
</clipPath>
</defs>
</svg>
