<svg width="50" height="50" viewBox="0 0 50 50" fill="none" xmlns="http://www.w3.org/2000/svg">
<g id="files">
<path id="Icon" d="M31.2497 6.25H26.6663C23.166 6.25 21.4159 6.25 20.0789 6.93121C18.9029 7.53042 17.9468 8.48655 17.3476 9.66256C16.6663 10.9995 16.6663 12.7497 16.6663 16.25V25.4167C16.6663 28.917 16.6663 30.6672 17.3476 32.0041C17.9468 33.1801 18.9029 34.1362 20.0789 34.7355C21.4159 35.4167 23.166 35.4167 26.6663 35.4167H31.6663C35.1667 35.4167 36.9168 35.4167 38.2538 34.7355C39.4298 34.1362 40.3859 33.1801 40.9851 32.0041C41.6663 30.6672 41.6663 28.917 41.6663 25.4167V17.1875L31.2497 6.25ZM31.2497 6.25V12.0833C31.2497 14.4169 31.2497 15.5837 31.7038 16.475C32.1033 17.259 32.7407 17.8964 33.5247 18.2959C34.416 18.75 35.5828 18.75 37.9163 18.75H41.6663M16.6663 12.5H14.583C11.1312 12.5 8.33301 15.2982 8.33301 18.75V37.5C8.33301 40.9518 11.1312 43.75 14.583 43.75H29.1663C32.6181 43.75 35.4163 40.9518 35.4163 37.5V35.4167" stroke="#193C6D" stroke-width="1.5" stroke-linecap="round" stroke-linejoin="round"/>
</g>
</svg>
