<svg width="25" height="25" viewBox="0 0 25 25" fill="none" xmlns="http://www.w3.org/2000/svg">
<g id="envelopes" clip-path="url(#clip0_79_74)">
<path id="Vector" d="M19.7917 1.04167H9.375C6.5 1.04167 4.16667 3.375 4.16667 6.25V14.5833C4.16667 17.4583 6.5 19.7917 9.375 19.7917H19.7917C22.6667 19.7917 25 17.4583 25 14.5833V6.25C25 3.375 22.6667 1.04167 19.7917 1.04167ZM9.375 3.125H19.7917C20.7188 3.125 21.5521 3.53125 22.125 4.16667L16.7917 9.5C15.5729 10.7187 13.5938 10.7187 12.375 9.5L7.04167 4.16667C7.61458 3.52083 8.44792 3.125 9.375 3.125ZM19.7917 17.7083H9.375C7.65625 17.7083 6.25 16.3021 6.25 14.5833V6.32292L10.8958 10.9687C11.9062 11.9792 13.25 12.4896 14.5833 12.4896C15.9167 12.4896 17.25 11.9792 18.2708 10.9687L22.9167 6.32292V14.5833C22.9167 16.3021 21.5104 17.7083 19.7917 17.7083ZM19.7917 22.9167C19.7917 23.4896 19.3229 23.9583 18.75 23.9583H5.20833C2.33333 23.9583 0 21.625 0 18.75V7.29167C0 6.71875 0.46875 6.25 1.04167 6.25C1.61458 6.25 2.08333 6.71875 2.08333 7.29167V18.75C2.08333 20.4687 3.48958 21.875 5.20833 21.875H18.75C19.3229 21.875 19.7917 22.3437 19.7917 22.9167Z" fill="#153D6E"/>
</g>
<defs>
<clipPath id="clip0_79_74">
<rect width="25" height="25" fill="white"/>
</clipPath>
</defs>
</svg>
