<svg width="25" height="25" viewBox="0 0 25 25" fill="none" xmlns="http://www.w3.org/2000/svg">
<g clip-path="url(#clip0_79_76)">
<path d="M12.5 25C10.0277 25 7.61099 24.2669 5.55538 22.8934C3.49976 21.5199 1.89761 19.5676 0.951511 17.2835C0.00541608 14.9995 -0.242126 12.4861 0.24019 10.0614C0.722505 7.63661 1.91301 5.40933 3.66117 3.66117C5.40933 1.91301 7.63661 0.722505 10.0614 0.24019C12.4861 -0.242126 14.9995 0.00541608 17.2835 0.951511C19.5676 1.89761 21.5199 3.49976 22.8934 5.55538C24.2669 7.61099 25 10.0277 25 12.5C24.9964 15.8141 23.6783 18.9915 21.3349 21.3349C18.9915 23.6783 15.8141 24.9964 12.5 25ZM12.5 2.08334C10.4398 2.08334 8.42583 2.69427 6.71282 3.83886C4.9998 4.98346 3.66467 6.61032 2.87626 8.51372C2.08785 10.4171 1.88156 12.5116 2.28349 14.5322C2.68542 16.5528 3.67751 18.4089 5.13431 19.8657C6.59111 21.3225 8.44718 22.3146 10.4678 22.7165C12.4885 23.1184 14.5829 22.9122 16.4863 22.1238C18.3897 21.3353 20.0165 20.0002 21.1611 18.2872C22.3057 16.5742 22.9167 14.5602 22.9167 12.5C22.9136 9.73827 21.8152 7.09051 19.8624 5.13766C17.9095 3.18481 15.2617 2.08637 12.5 2.08334Z" fill="#153D6E"/>
<path d="M14.5832 19.7917H12.4998V12.5H10.4165V10.4167H12.4998C13.0524 10.4167 13.5823 10.6362 13.973 11.0269C14.3637 11.4176 14.5832 11.9475 14.5832 12.5V19.7917Z" fill="#153D6E"/>
<path d="M12.5 8.33333C13.3629 8.33333 14.0625 7.63378 14.0625 6.77083C14.0625 5.90789 13.3629 5.20833 12.5 5.20833C11.6371 5.20833 10.9375 5.90789 10.9375 6.77083C10.9375 7.63378 11.6371 8.33333 12.5 8.33333Z" fill="#153D6E"/>
</g>
<defs>
<clipPath id="clip0_79_76">
<rect width="25" height="25" fill="white"/>
</clipPath>
</defs>
</svg>
