<svg width="20" height="21" viewBox="0 0 20 21" fill="none" xmlns="http://www.w3.org/2000/svg">
<g id="sos">
<path id="Subtract" fill-rule="evenodd" clip-rule="evenodd" d="M3 0.5C1.34315 0.5 0 1.84315 0 3.5V17.5C0 19.1569 1.34315 20.5 3 20.5H17C18.6569 20.5 20 19.1569 20 17.5V3.5C20 1.84315 18.6569 0.5 17 0.5H3ZM10.0173 13.5C9.20876 13.5 8.59087 13.2795 8.16359 12.8385C7.59047 12.2974 7.30391 11.5179 7.30391 10.5C7.30391 9.46154 7.59047 8.68205 8.16359 8.16154C8.59087 7.72051 9.20876 7.5 10.0173 7.5C10.8258 7.5 11.4437 7.72051 11.871 8.16154C12.4415 8.68205 12.7268 9.46154 12.7268 10.5C12.7268 11.5179 12.4415 12.2974 11.871 12.8385C11.4437 13.2795 10.8258 13.5 10.0173 13.5ZM11.1341 11.9769C11.4079 11.6308 11.5447 11.1385 11.5447 10.5C11.5447 9.8641 11.4066 9.37308 11.1302 9.02692C10.8565 8.67821 10.4855 8.50385 10.0173 8.50385C9.54905 8.50385 9.1755 8.67692 8.89662 9.02308C8.61773 9.36923 8.47829 9.86154 8.47829 10.5C8.47829 11.1385 8.61773 11.6308 8.89662 11.9769C9.1755 12.3231 9.54905 12.4962 10.0173 12.4962C10.4855 12.4962 10.8578 12.3231 11.1341 11.9769ZM4.32574 12.5231C4.60462 12.5231 4.83105 12.4923 5.00504 12.4308C5.33509 12.3128 5.50012 12.0936 5.50012 11.7731C5.50012 11.5859 5.41825 11.441 5.2545 11.3385C5.09075 11.2385 4.83361 11.15 4.48309 11.0731L3.88438 10.9385C3.29591 10.8051 2.8891 10.6603 2.66395 10.5038C2.28272 10.2423 2.09211 9.83333 2.09211 9.27692C2.09211 8.76923 2.27633 8.34744 2.64476 8.01154C3.01319 7.67564 3.55433 7.50769 4.26817 7.50769C4.86432 7.50769 5.37219 7.66667 5.7918 7.98462C6.21396 8.3 6.43528 8.75897 6.45574 9.36154H5.31974C5.29927 9.02051 5.15088 8.7782 4.87455 8.63462C4.69033 8.53974 4.46134 8.49231 4.18757 8.49231C3.88311 8.49231 3.64004 8.55385 3.45838 8.67692C3.27673 8.8 3.1859 8.9718 3.1859 9.19231C3.1859 9.39487 3.27545 9.54615 3.45455 9.64615C3.56968 9.71282 3.8153 9.79103 4.19141 9.88077L5.16623 10.1154C5.59351 10.2179 5.91589 10.3551 6.13337 10.5269C6.4711 10.7936 6.63996 11.1795 6.63996 11.6846C6.63996 12.2026 6.44167 12.6333 6.04509 12.9769C5.65108 13.3179 5.09331 13.4885 4.37179 13.4885C3.63492 13.4885 3.05541 13.3205 2.63325 12.9846C2.21108 12.6462 2 12.1821 2 11.5923H3.12833C3.16415 11.8513 3.23451 12.0449 3.33941 12.1731C3.5313 12.4064 3.86008 12.5231 4.32574 12.5231ZM16.3651 12.4308C16.1911 12.4923 15.9647 12.5231 15.6858 12.5231C15.2201 12.5231 14.8913 12.4064 14.6994 12.1731C14.5945 12.0449 14.5242 11.8513 14.4884 11.5923H13.36C13.36 12.1821 13.5711 12.6462 13.9933 12.9846C14.4154 13.3205 14.995 13.4885 15.7318 13.4885C16.4533 13.4885 17.0111 13.3179 17.4051 12.9769C17.8017 12.6333 18 12.2026 18 11.6846C18 11.1795 17.8311 10.7936 17.4934 10.5269C17.2759 10.3551 16.9535 10.2179 16.5263 10.1154L15.5515 9.88077C15.1753 9.79103 14.9297 9.71282 14.8146 9.64615C14.6355 9.54615 14.5459 9.39487 14.5459 9.19231C14.5459 8.9718 14.6368 8.8 14.8184 8.67692C15.0001 8.55385 15.2431 8.49231 15.5476 8.49231C15.8214 8.49231 16.0504 8.53974 16.2346 8.63462C16.5109 8.7782 16.6593 9.02051 16.6798 9.36154H17.8158C17.7953 8.75897 17.574 8.3 17.1518 7.98462C16.7322 7.66667 16.2244 7.50769 15.6282 7.50769C14.9144 7.50769 14.3732 7.67564 14.0048 8.01154C13.6364 8.34744 13.4521 8.76923 13.4521 9.27692C13.4521 9.83333 13.6428 10.2423 14.024 10.5038C14.2491 10.6603 14.656 10.8051 15.2444 10.9385L15.8431 11.0731C16.1937 11.15 16.4508 11.2385 16.6145 11.3385C16.7783 11.441 16.8602 11.5859 16.8602 11.7731C16.8602 12.0936 16.6951 12.3128 16.3651 12.4308Z" fill="#E6E6E6"/>
</g>
</svg>
