<svg width="50" height="50" viewBox="0 0 50 50" fill="none" xmlns="http://www.w3.org/2000/svg">
<g id="fi_10443963">
<g id="Group">
<path id="Vector" d="M28.7147 5.16825L25.3821 12.7858L23.6566 12.0309L27.2624 3.78923L27.2624 3.78922C27.4123 3.44648 27.7509 3.225 28.1251 3.225H37.5001C37.8178 3.225 38.1143 3.38528 38.2883 3.65123C38.4621 3.91719 38.4902 4.25296 38.3629 4.54412L31.1113 21.1191L29.3858 20.3643L35.999 5.24842L36.0603 5.10833H35.9074H28.8064H28.741L28.7147 5.16825Z" fill="#153D6E" stroke="#E6F3FF" stroke-width="0.2"/>
<path id="Vector_2" d="M28.9478 20.3643L27.2222 21.1191L20.2438 5.16825L20.2175 5.10833H20.1521H13.0998H12.9423L13.0094 5.25091L20.6012 21.3836L18.8971 22.1855L10.6064 4.56763C10.4691 4.27594 10.4906 3.9343 10.6633 3.6621C10.8361 3.3899 11.136 3.225 11.4584 3.225H20.8334C21.2074 3.225 21.5463 3.4465 21.6962 3.78922L21.6962 3.78923L28.9478 20.3643Z" fill="#153D6E" stroke="#E6F3FF" stroke-width="0.2"/>
<path id="Vector_3" d="M25.0002 21.775C18.6167 21.775 13.4418 26.9497 13.4418 33.3333C13.4418 39.7169 18.6167 44.8916 25.0002 44.8916C31.3837 44.8916 36.5585 39.7169 36.5585 33.3333C36.5585 26.9497 31.3837 21.775 25.0002 21.775ZM11.5585 33.3333C11.5585 25.9096 17.5765 19.8916 25.0002 19.8916C32.4239 19.8916 38.4418 25.9096 38.4418 33.3333C38.4418 40.757 32.4239 46.775 25.0002 46.775C17.5765 46.775 11.5585 40.757 11.5585 33.3333Z" fill="#153D6E" stroke="#E6F3FF" stroke-width="0.2"/>
</g>
</g>
</svg>
