<svg width="50" height="50" viewBox="0 0 50 50" fill="none" xmlns="http://www.w3.org/2000/svg">
<g id="fi_9018937">
<path id="Vector" d="M40.1738 25.5801C39.728 25.5801 39.3673 25.2193 39.3673 24.7736V22.9936C39.3673 22.5478 39.728 22.1871 40.1738 22.1871C40.6196 22.1871 40.9803 22.5478 40.9803 22.9936V24.7736C40.9803 25.2193 40.6196 25.5801 40.1738 25.5801ZM50 27.1719V31.7971C50 33.4221 48.6796 34.7425 47.0624 34.7425H44.0779C42.9685 36.6957 41.4528 38.4457 39.5777 39.938L39.0778 45.4929C38.9058 47.3758 37.3589 48.7977 35.4683 48.7977C33.7728 48.7977 32.3197 47.6336 31.9369 45.9773L31.4681 43.9147C27.6086 44.9069 23.4678 44.9069 19.6005 43.9147L19.1317 45.9773C18.7567 47.6336 17.3036 48.7977 15.6003 48.7977C13.7175 48.7977 12.1627 47.3758 11.9986 45.4929L11.4986 39.938C7.55575 36.8015 5.21344 32.4598 4.97521 27.8886C4.6375 27.971 4.28969 28.0157 3.93586 28.0157H3.82652C2.73272 27.9923 1.7483 27.5704 1.04518 26.8282C-0.142377 25.5781 -0.337697 23.5702 0.56074 21.9452C0.779522 21.5545 1.26391 21.4139 1.65455 21.6249C2.04519 21.8436 2.18581 22.3358 1.96708 22.7264C1.40453 23.7421 1.5061 24.9687 2.21709 25.7188C2.61551 26.1406 3.2171 26.3906 3.86558 26.4063C4.26184 26.3978 4.64185 26.3197 4.9961 26.1777C5.43662 19.127 10.7793 13.1739 18.176 10.7483C18.0146 10.1312 17.9207 9.48718 17.9207 8.81972C17.9207 4.62427 21.3349 1.20227 25.5382 1.20227C29.7415 1.20227 33.1557 4.62427 33.1557 8.81972C33.1557 9.48293 33.0626 10.1237 32.9023 10.7379C34.4341 11.24 35.8989 11.8916 37.273 12.7027C37.7496 12.3745 38.234 12.0933 38.7496 11.8667C39.8434 11.3745 41.6481 11.0151 42.8435 11.3276C43.3122 11.4448 43.6794 11.7495 43.906 12.2027C44.6638 13.7418 43.6091 16.9137 43.1716 18.0701C44.5154 19.9686 45.4061 22.0311 45.8358 24.2265H47.0624C48.6796 24.2265 50 25.5469 50 27.1719ZM19.5302 8.81972C19.5302 10.8088 20.5122 12.5625 22.0078 13.6584C24.3264 13.2543 26.7433 13.254 29.0675 13.6595C30.5656 12.5673 31.5462 10.8137 31.5462 8.81972C31.5462 5.51493 28.8508 2.81952 25.5382 2.81952C22.2256 2.81952 19.5302 5.51493 19.5302 8.81972ZM48.3906 27.1719C48.3906 26.4375 47.789 25.8437 47.0624 25.8437H45.1482C44.7498 25.8437 44.4138 25.5469 44.3514 25.1563C44.0076 22.828 43.0857 20.6405 41.6169 18.6716C41.445 18.4373 41.4059 18.1325 41.5232 17.8748C42.3278 15.984 42.8201 13.273 42.4294 12.8746C41.7419 12.7027 40.3512 12.9136 39.4137 13.3355C38.8512 13.5933 38.3277 13.9059 37.8121 14.3043C37.5464 14.5152 37.1714 14.5309 36.8901 14.3512C35.4756 13.4621 33.9455 12.7648 32.3354 12.2457C31.9893 12.9301 31.5435 13.5545 31.0171 14.1016C31.7106 14.2972 32.3914 14.5269 33.0507 14.7993C33.4634 14.9686 33.6587 15.4404 33.4886 15.8523C33.32 16.2642 32.8506 16.4611 32.4363 16.2895C28.1455 14.5173 22.9047 14.5221 18.643 16.2895C18.5421 16.3312 18.4374 16.3509 18.3342 16.3509C18.0184 16.3509 17.7175 16.1634 17.5891 15.8531C17.419 15.442 17.6143 14.9702 18.0255 14.7993C18.6824 14.527 19.3617 14.2974 20.0541 14.1018C19.5323 13.5579 19.0912 12.9388 18.7473 12.2614C11.632 14.5547 6.56876 20.3467 6.56876 27.1172C6.56876 31.5705 8.82667 35.8597 12.7565 38.8755C12.9362 39.0161 13.0534 39.2193 13.0768 39.4458L13.6003 45.3523C13.6941 46.3992 14.5535 47.1805 15.6003 47.1805C16.5457 47.1805 17.3504 46.5398 17.5613 45.6179L18.2176 42.735C18.2645 42.5162 18.4051 42.3287 18.6005 42.2115C18.788 42.1022 19.0223 42.0787 19.2333 42.1412C23.3116 43.3444 27.7648 43.3444 31.8431 42.1412C31.9134 42.1178 31.9916 42.1022 32.0697 42.1022C32.2103 42.1022 32.3509 42.1412 32.476 42.2115C32.6713 42.3287 32.8041 42.5162 32.8588 42.735L33.5151 45.6179C33.7182 46.5398 34.5307 47.1805 35.4683 47.1805C36.5152 47.1805 37.3746 46.3914 37.4761 45.3523L37.9996 39.4458C38.023 39.2193 38.1324 39.0161 38.3121 38.8755C40.2731 37.3676 41.8122 35.5785 42.8826 33.555C43.0232 33.2893 43.2966 33.1253 43.6014 33.1253H47.0624C47.789 33.1253 48.3906 32.5315 48.3906 31.7971L48.3906 27.1719ZM21.2736 8.82292C21.2736 6.47112 23.1867 4.55799 25.5384 4.55799C27.8902 4.55799 29.8041 6.47113 29.8041 8.82292C29.8041 11.1747 27.8902 13.0886 25.5384 13.0886C23.1866 13.0886 21.2736 11.1747 21.2736 8.82292ZM22.8866 8.82292C22.8866 10.2855 24.0759 11.4756 25.5384 11.4756C27.0018 11.4756 28.1911 10.2855 28.1911 8.82292C28.1911 7.36031 27.0018 6.17104 25.5384 6.17104C24.0759 6.17104 22.8866 7.36032 22.8866 8.82292Z" fill="#153D6E"/>
</g>
</svg>
