<svg width="50" height="50" viewBox="0 0 50 50" fill="none" xmlns="http://www.w3.org/2000/svg">
<g id="fi_2781404">
<g id="Group">
<g id="Group_2">
<g id="Group_3">
<path id="Vector" d="M35.9375 35.1562H37.5V41.4062H35.9375V35.1562Z" fill="#153D6E"/>
</g>
<g id="Group_4">
<path id="Vector_2" d="M33.5938 37.5H39.8438V39.0625H33.5938V37.5Z" fill="#153D6E"/>
</g>
</g>
<g id="Group_5">
<path id="Vector_3" d="M25 28.125C18.5383 28.125 13.2812 22.868 13.2812 16.4062C13.2812 9.94453 18.5383 4.6875 25 4.6875C31.4617 4.6875 36.7188 9.94453 36.7188 16.4062C36.7188 22.868 31.4617 28.125 25 28.125ZM25 6.25C19.4 6.25 14.8438 10.8062 14.8438 16.4062C14.8438 22.0063 19.4 26.5625 25 26.5625C30.6 26.5625 35.1562 22.0063 35.1562 16.4062C35.1562 10.8062 30.6 6.25 25 6.25Z" fill="#153D6E"/>
</g>
<g id="Group_6">
<path id="Vector_4" d="M46.0938 46.875H3.90625V39.0625C3.90625 33.0312 8.8125 28.125 14.8438 28.125H15.1094L25 35.7328L34.8906 28.125H35.1562C41.1875 28.125 46.0938 33.0312 46.0938 39.0625V46.875ZM5.46875 45.3125H44.5312V39.0625C44.5312 33.9805 40.4664 29.8305 35.4172 29.6914L25 37.7047L14.5828 29.6914C9.53359 29.8305 5.46875 33.9805 5.46875 39.0625V45.3125Z" fill="#153D6E"/>
</g>
</g>
</g>
</svg>
