<svg width="45" height="45" viewBox="0 0 45 45" fill="none" xmlns="http://www.w3.org/2000/svg">
<g id="fi_1550282" clip-path="url(#clip0_42_1829)">
<path id="Vector" d="M41.1599 0.645249C40.2704 -0.211991 38.8625 -0.211991 37.973 0.645249L32.6325 5.97957H3.74995C1.67981 5.98197 0.00240316 7.65938 0 9.72952V41.228C0.00240316 43.2982 1.67981 44.9756 3.74995 44.978H35.2485C37.3183 44.9756 38.996 43.2982 38.9984 41.228V12.3455L44.3351 7.00572C44.7605 6.58517 45.0001 6.01184 45.0001 5.4138C45.0001 4.81576 44.7605 4.24243 44.3351 3.82188L41.1599 0.645249ZM23.9104 17.329L27.5532 20.9708L21.5752 22.7917L23.9104 17.329ZM37.4985 41.228C37.4985 42.4708 36.4912 43.4781 35.2485 43.4781H3.74995C2.50718 43.4781 1.49991 42.4708 1.49991 41.228V9.72952C1.49991 8.48675 2.50718 7.47948 3.74995 7.47948H31.1319L23.1239 15.4841C23.1163 15.4906 23.1139 15.5012 23.1063 15.5088C23.0476 15.5702 22.9996 15.6413 22.9649 15.7189L19.7543 23.2287H7.49957C7.08554 23.2287 6.74978 23.5648 6.74978 23.9789C6.74978 24.3932 7.08554 24.729 7.49957 24.729H20.2545C20.3266 24.7283 20.3987 24.7177 20.468 24.6974L29.1819 22.0426C29.1984 22.0371 29.2121 22.0282 29.2279 22.0224C29.2437 22.0162 29.2601 22.0079 29.2766 22.0004C29.3034 21.9901 29.3298 21.9777 29.3552 21.9636C29.3717 21.9534 29.3851 21.9389 29.4016 21.9276C29.4342 21.9049 29.4651 21.8799 29.4939 21.8528L37.4985 13.8461V41.228ZM43.2784 5.94078L37.7285 11.4904L37.7175 11.4986L28.9639 20.2636L24.7144 16.0141L33.4763 7.25977L33.4832 7.25084L39.0372 1.70092C39.3311 1.4122 39.8018 1.4122 40.0956 1.70092L43.2784 4.88476C43.4202 5.02346 43.5002 5.21331 43.5002 5.41208C43.5002 5.61051 43.4202 5.80036 43.2784 5.93906V5.94078Z" fill="#153D6E"/>
<path id="Vector_2" d="M6.75 30.7284C6.75 31.1424 7.08576 31.4782 7.49978 31.4782H33.7488C34.1628 31.4782 34.4989 31.1424 34.4989 30.7284C34.4989 30.314 34.1628 29.9783 33.7488 29.9783H7.49978C7.08576 29.9783 6.75 30.314 6.75 30.7284Z" fill="#153D6E"/>
<path id="Vector_3" d="M16.4996 36.728H7.49978C7.08576 36.728 6.75 37.0638 6.75 37.4782C6.75 37.8922 7.08576 38.2279 7.49978 38.2279H16.4996C16.9136 38.2279 17.2494 37.8922 17.2494 37.4782C17.2494 37.0638 16.9136 36.728 16.4996 36.728Z" fill="#153D6E"/>
<path id="Vector_4" d="M21.7487 36.728H20.2488C19.8348 36.728 19.499 37.0638 19.499 37.4782C19.499 37.8922 19.8348 38.2279 20.2488 38.2279H21.7487C22.1631 38.2279 22.4988 37.8922 22.4988 37.4782C22.4988 37.0638 22.1631 36.728 21.7487 36.728Z" fill="#153D6E"/>
</g>
<defs>
<clipPath id="clip0_42_1829">
<rect width="45" height="45" fill="white"/>
</clipPath>
</defs>
</svg>
