<svg width="28" height="25" viewBox="0 0 28 25" fill="none" xmlns="http://www.w3.org/2000/svg">
<g id="Group 4">
<rect id="Rectangle 22" x="0.833333" y="0.833333" width="23.3333" height="23.3333" fill="white" stroke="#153D6E" stroke-width="1.66667"/>
<path id="Vector" d="M5.82671 9.85053C5.54179 9.73555 5.22628 9.72338 4.9335 9.81605C4.64072 9.90873 4.38861 10.1006 4.21978 10.3592C4.05094 10.6178 3.97574 10.9273 4.00688 11.2354C4.03801 11.5435 4.17358 11.8313 4.39066 12.0502L11.0514 18.773C11.3012 19.025 11.6399 19.1666 11.9932 19.1666C12.3464 19.1666 12.6852 19.025 12.935 18.773L27.5885 3.98292C27.8349 3.74518 27.9815 3.4212 27.9984 3.07764C28.0152 2.73407 27.901 2.39706 27.6791 2.13594C27.4573 1.87481 27.1447 1.70944 26.8057 1.67385C26.4667 1.63825 26.1271 1.73514 25.8568 1.94459L11.804 12.264L5.82671 9.85053Z" fill="#B8181C"/>
</g>
</svg>
