<svg width="25" height="25" viewBox="0 0 25 25" fill="none" xmlns="http://www.w3.org/2000/svg">
<g clip-path="url(#clip0_79_72)">
<path d="M20.7292 3.21961C20.6011 2.66925 20.3624 2.15069 20.0276 1.69547C19.6929 1.24024 19.269 0.857869 18.7818 0.571599C18.2946 0.285329 17.7543 0.101145 17.1937 0.0302482C16.6331 -0.040649 16.0639 0.00322231 15.5208 0.159194L13.725 0.672736C13.2701 0.803486 12.8511 1.03651 12.5 1.35399C12.1489 1.03651 11.7299 0.803486 11.275 0.672736L9.47917 0.159194C8.93639 0.00403523 8.36775 -0.0392106 7.80775 0.0320814C7.24775 0.103374 6.70808 0.287717 6.22149 0.573921C5.7349 0.860126 5.31155 1.24222 4.97712 1.69702C4.6427 2.15182 4.40418 2.66983 4.27604 3.21961C3.07791 3.43759 1.99405 4.06852 1.21285 5.00273C0.431643 5.93694 0.00249582 7.11536 0 8.33315L0 15.6248C0.00165402 17.0056 0.550919 18.3294 1.52731 19.3058C2.50371 20.2822 3.82751 20.8315 5.20833 20.8332H11.4583V22.9165H8.33333C8.05707 22.9165 7.79211 23.0262 7.59676 23.2216C7.40141 23.4169 7.29167 23.6819 7.29167 23.9582C7.29167 24.2344 7.40141 24.4994 7.59676 24.6947C7.79211 24.8901 8.05707 24.9998 8.33333 24.9998H16.6667C16.9429 24.9998 17.2079 24.8901 17.4032 24.6947C17.5986 24.4994 17.7083 24.2344 17.7083 23.9582C17.7083 23.6819 17.5986 23.4169 17.4032 23.2216C17.2079 23.0262 16.9429 22.9165 16.6667 22.9165H13.5417V20.8332H19.7917C21.1725 20.8315 22.4963 20.2822 23.4727 19.3058C24.4491 18.3294 24.9983 17.0056 25 15.6248V8.33315C24.9977 7.11611 24.5693 5.93828 23.7892 5.00418C23.009 4.07007 21.9263 3.43868 20.7292 3.21961ZM13.5417 3.67794C13.5418 3.45171 13.6155 3.23166 13.7518 3.05106C13.888 2.87045 14.0794 2.73912 14.2969 2.6769L16.0938 2.16336C16.4038 2.07467 16.7303 2.05918 17.0474 2.11812C17.3645 2.17705 17.6635 2.30881 17.921 2.503C18.1786 2.69719 18.3875 2.94851 18.5313 3.23718C18.6752 3.52584 18.75 3.84396 18.75 4.16649V8.26857C18.7486 8.7206 18.6006 9.15998 18.3282 9.52077C18.0559 9.88157 17.6739 10.1443 17.2396 10.2696L13.5417 11.3259V3.67794ZM7.08333 2.49982C7.34034 2.30633 7.6388 2.17522 7.95515 2.11683C8.27151 2.05844 8.59711 2.07437 8.90625 2.16336L10.7031 2.6769C10.9206 2.73912 11.112 2.87045 11.2482 3.05106C11.3845 3.23166 11.4582 3.45171 11.4583 3.67794V11.3259L7.76042 10.2696C7.32609 10.1443 6.9441 9.88157 6.67177 9.52077C6.39944 9.15998 6.25144 8.7206 6.25 8.26857V4.16649C6.24894 3.84287 6.32378 3.52352 6.4685 3.23407C6.61323 2.94462 6.82381 2.69314 7.08333 2.49982ZM22.9167 15.6248C22.9167 16.4536 22.5874 17.2485 22.0014 17.8345C21.4153 18.4206 20.6205 18.7498 19.7917 18.7498H5.20833C4.37953 18.7498 3.58468 18.4206 2.99862 17.8345C2.41257 17.2485 2.08333 16.4536 2.08333 15.6248V8.33315C2.086 7.68913 2.28759 7.06166 2.66051 6.53659C3.03343 6.01152 3.55947 5.61449 4.16667 5.39982V8.26857C4.16922 9.17309 4.46502 10.0524 5.00968 10.7745C5.55435 11.4967 6.31851 12.0227 7.1875 12.2738L10.7823 13.3019C11.9057 13.6221 13.0963 13.6221 14.2198 13.3019L17.8146 12.2738C18.6832 12.0224 19.4469 11.4962 19.9911 10.774C20.5354 10.0519 20.8309 9.17282 20.8333 8.26857V5.39982C21.4405 5.61449 21.9666 6.01152 22.3395 6.53659C22.7124 7.06166 22.914 7.68913 22.9167 8.33315V15.6248Z" fill="#153D6E"/>
</g>
<defs>
<clipPath id="clip0_79_72">
<rect width="25" height="25" fill="white"/>
</clipPath>
</defs>
</svg>
