<svg width="20" height="20" viewBox="0 0 20 20" fill="none" xmlns="http://www.w3.org/2000/svg">
<g id="ic:round-phone">
<path id="Vector" d="M16.025 12.7167L13.9084 12.475C13.6595 12.4458 13.4072 12.4733 13.1705 12.5556C12.9338 12.6379 12.7188 12.7727 12.5417 12.95L11.0084 14.4833C8.64269 13.2802 6.71985 11.3573 5.5167 8.99167L7.05837 7.45C7.4167 7.09167 7.5917 6.59167 7.53337 6.08333L7.2917 3.98333C7.24446 3.57681 7.04936 3.20186 6.74356 2.92987C6.43777 2.65788 6.04262 2.50785 5.63337 2.50833H4.1917C3.25003 2.50833 2.4667 3.29167 2.52503 4.23333C2.9667 11.35 8.65837 17.0333 15.7667 17.475C16.7084 17.5333 17.4917 16.75 17.4917 15.8083V14.3667C17.5 13.525 16.8667 12.8167 16.025 12.7167Z" fill="white"/>
</g>
</svg>
