<svg width="23" height="23" viewBox="0 0 23 23" fill="none" xmlns="http://www.w3.org/2000/svg">
<g clip-path="url(#clip0_79_68)">
<path d="M3.83311 5.75C3.45529 5.75099 3.08102 5.67705 2.73196 5.53246C2.3829 5.38787 2.06598 5.1755 1.79952 4.90763L0.319858 3.59088C0.129996 3.4216 0.0151544 3.18384 0.000596848 2.92989C-0.0139607 2.67594 0.0729584 2.42661 0.242233 2.23675C0.411507 2.04689 0.649271 1.93205 0.903219 1.91749C1.15717 1.90293 1.4065 1.98985 1.59636 2.15913L3.11532 3.51421C3.20227 3.61186 3.30829 3.69068 3.42685 3.74583C3.54541 3.80097 3.67399 3.83127 3.8047 3.83486C3.93541 3.83846 4.06546 3.81526 4.18687 3.76671C4.30828 3.71816 4.41846 3.64527 4.51065 3.55254L7.96448 0.264502C8.1502 0.0991606 8.39291 0.0124782 8.64136 0.022763C8.8898 0.0330479 9.12452 0.139495 9.29593 0.31962C9.46735 0.499746 9.56205 0.739446 9.56002 0.988093C9.55799 1.23674 9.4594 1.47486 9.28507 1.65217L5.84561 4.92392C5.58089 5.18709 5.26689 5.39551 4.92158 5.53726C4.57626 5.679 4.20638 5.7513 3.83311 5.75ZM22.9998 3.83334C22.9998 3.57917 22.8988 3.33541 22.7191 3.15569C22.5394 2.97597 22.2956 2.875 22.0414 2.875H12.4581C12.2039 2.875 11.9602 2.97597 11.7805 3.15569C11.6007 3.33541 11.4998 3.57917 11.4998 3.83334C11.4998 4.0875 11.6007 4.33126 11.7805 4.51098C11.9602 4.6907 12.2039 4.79167 12.4581 4.79167H22.0414C22.2956 4.79167 22.5394 4.6907 22.7191 4.51098C22.8988 4.33126 22.9998 4.0875 22.9998 3.83334ZM5.84561 12.5906L9.28507 9.31884C9.38106 9.23337 9.45889 9.12947 9.51391 9.01331C9.56893 8.89716 9.60003 8.77112 9.60534 8.6427C9.61066 8.51428 9.59009 8.3861 9.54486 8.2658C9.49962 8.14549 9.43065 8.03551 9.34205 7.9424C9.25344 7.8493 9.14701 7.77497 9.02909 7.72383C8.91117 7.6727 8.78417 7.64581 8.65565 7.64476C8.52712 7.64371 8.3997 7.66853 8.28096 7.71773C8.16222 7.76693 8.05459 7.83952 7.96448 7.93117L4.51448 11.2192C4.33205 11.3937 4.08936 11.491 3.83694 11.491C3.58453 11.491 3.34183 11.3937 3.1594 11.2192L1.63565 9.70025C1.45491 9.52568 1.21283 9.42909 0.961557 9.43127C0.710285 9.43346 0.469923 9.53424 0.29224 9.71193C0.114557 9.88961 0.0137703 10.13 0.0115869 10.3812C0.00940338 10.6325 0.105998 10.8746 0.280566 11.0553L1.79952 12.5743C2.33588 13.1108 3.06253 13.4135 3.82113 13.4166C4.57973 13.4196 5.30879 13.1227 5.84944 12.5906H5.84561ZM22.9998 11.5C22.9998 11.2458 22.8988 11.0021 22.7191 10.8224C22.5394 10.6426 22.2956 10.5417 22.0414 10.5417H12.4581C12.2039 10.5417 11.9602 10.6426 11.7805 10.8224C11.6007 11.0021 11.4998 11.2458 11.4998 11.5C11.4998 11.7542 11.6007 11.9979 11.7805 12.1776C11.9602 12.3574 12.2039 12.4583 12.4581 12.4583H22.0414C22.2956 12.4583 22.5394 12.3574 22.7191 12.1776C22.8988 11.9979 22.9998 11.7542 22.9998 11.5ZM5.84561 20.2573L9.28123 16.9855C9.37723 16.9 9.45506 16.7961 9.51008 16.68C9.5651 16.5638 9.59619 16.4378 9.60151 16.3094C9.60683 16.1809 9.58626 16.0528 9.54102 15.9325C9.49579 15.8122 9.42682 15.7022 9.33821 15.6091C9.24961 15.516 9.14318 15.4416 9.02526 15.3905C8.90734 15.3394 8.78034 15.3125 8.65181 15.3114C8.52329 15.3104 8.39587 15.3352 8.27713 15.3844C8.15839 15.4336 8.05076 15.5062 7.96065 15.5978L4.51065 18.8859C4.41846 18.9786 4.30828 19.0515 4.18687 19.1C4.06546 19.1486 3.93541 19.1718 3.8047 19.1682C3.67399 19.1646 3.54541 19.1343 3.42685 19.0792C3.30829 19.024 3.20227 18.9452 3.11532 18.8475L1.59636 17.4925C1.4065 17.3232 1.15717 17.2363 0.903219 17.2508C0.649271 17.2654 0.411507 17.3802 0.242233 17.5701C0.0729584 17.7599 -0.0139607 18.0093 0.000596848 18.2632C0.0151544 18.5172 0.129996 18.7549 0.319858 18.9242L1.79952 20.241C2.33588 20.7774 3.06253 21.0802 3.82113 21.0832C4.57973 21.0863 5.30879 20.7894 5.84944 20.2573H5.84561ZM22.9998 19.1667C22.9998 18.9125 22.8988 18.6687 22.7191 18.489C22.5394 18.3093 22.2956 18.2083 22.0414 18.2083H12.4581C12.2039 18.2083 11.9602 18.3093 11.7805 18.489C11.6007 18.6687 11.4998 18.9125 11.4998 19.1667C11.4998 19.4208 11.6007 19.6646 11.7805 19.8443C11.9602 20.024 12.2039 20.125 12.4581 20.125H22.0414C22.2956 20.125 22.5394 20.024 22.7191 19.8443C22.8988 19.6646 22.9998 19.4208 22.9998 19.1667Z" fill="#153D6E"/>
</g>
<defs>
<clipPath id="clip0_79_68">
<rect width="23" height="23" fill="white"/>
</clipPath>
</defs>
</svg>
