<svg width="860" height="628" viewBox="0 0 860 628" fill="none" xmlns="http://www.w3.org/2000/svg">
<mask id="mask0_37_2380" style="mask-type:alpha" maskUnits="userSpaceOnUse" x="0" y="0" width="860" height="628">
<rect width="860" height="628" rx="30" fill="#E6F3FF"/>
</mask>
<g mask="url(#mask0_37_2380)">
<path opacity="0.3" d="M401 45.6009H381.308V22.3595H361.692V45.6009H342V68.5721H361.692V91.8136H381.308V68.5721H401V45.6009Z" fill="white"/>
<path opacity="0.3" d="M40 224.637H20.6415V201.783H1.35845V224.637H-18V247.225H1.35845V270.079H20.6415V247.225H40V224.637Z" fill="white"/>
<path opacity="0.4" d="M774 50.2087H758.981V32.7776H744.019V50.2087H729V67.4371H744.019V84.8681H758.981V67.4371H774V50.2087Z" fill="white"/>
<path opacity="0.5" d="M867 183.775H838.63V150.85H810.37V183.775H782V216.317H810.37V249.243H838.63V216.317H867V183.775Z" fill="white"/>
<path opacity="0.3" d="M85 110.452H59.3V80.2379H33.7V110.452H8V140.314H33.7V170.528H59.3V140.314H85V110.452Z" fill="white"/>
<path opacity="0.5" d="M540 260.111H525.648V243.455H511.352V260.111H497V276.574H511.352V293.23H525.648V276.574H540V260.111Z" fill="white"/>
<path opacity="0.5" d="M613 20.8551H603.988V10.7838H595.012V20.8551H586V30.8093H595.012V40.8806H603.988V30.8093H613V20.8551Z" fill="white"/>
<path opacity="0.3" d="M396.012 653.582L418.712 653.582L418.712 680.373L441.323 680.373L441.323 653.582L464.022 653.582L464.022 627.103L441.323 627.103L441.323 600.312L418.712 600.312L418.712 627.103L396.012 627.103L396.012 653.582Z" fill="white"/>
<path opacity="0.3" d="M812.143 447.205L834.457 447.205L834.457 473.549L856.685 473.549L856.685 447.205L879 447.205L879 421.167L856.685 421.167L856.685 394.823L834.457 394.823L834.457 421.167L812.143 421.167L812.143 447.205Z" fill="white"/>
<path opacity="0.4" d="M-12.0484 625.587L5.26475 625.587L5.26475 645.68L22.5105 645.68L22.5105 625.587L39.8237 625.587L39.8237 605.727L22.5105 605.727L22.5105 585.634L5.26475 585.634L5.26475 605.727L-12.0484 605.727L-12.0484 625.587Z" fill="white"/>
<path opacity="0.5" d="M52.0002 434.431L68.5439 434.431L68.5439 453.631L85.0232 453.631L85.0232 434.431L101.567 434.431L101.567 415.454L85.0232 415.454L85.0232 396.254L68.5439 396.254L68.5439 415.454L52.0002 415.454L52.0002 434.431Z" fill="white"/>
<path opacity="0.3" d="M760.27 578.827L789.895 578.827L789.895 613.655L819.405 613.655L819.405 578.827L849.029 578.827L849.029 544.404L819.405 544.404L819.405 509.576L789.895 509.576L789.895 544.404L760.27 544.404L760.27 578.827Z" fill="white"/>
<path opacity="0.5" d="M381.027 426.328L397.571 426.328L397.571 445.528L414.05 445.528L414.05 426.328L430.594 426.328L430.594 407.351L414.05 407.351L414.05 388.151L397.571 388.151L397.571 407.351L381.027 407.351L381.027 426.328Z" fill="white"/>
<path opacity="0.5" d="M148.179 639.408L158.567 639.408L158.567 651.017L168.914 651.017L168.914 639.408L179.302 639.408L179.302 627.933L168.914 627.933L168.914 616.324L158.567 616.324L158.567 627.933L148.179 627.933L148.179 639.408Z" fill="white"/>
</g>
</svg>
