<svg width="305" height="195" viewBox="0 0 305 195" fill="none" xmlns="http://www.w3.org/2000/svg">
<path d="M185.367 54.8344L135.583 45.8916C134.976 45.7827 134.5 45.3142 134.384 44.7122C134.268 44.1102 134.536 43.4997 135.059 43.176L155.844 30.2965C156.446 29.9226 157.232 30.0239 157.72 30.5398L163.052 36.1877L170.035 32.7528C170.672 32.4395 171.445 32.6174 171.878 33.1777L186.812 52.4728C187.188 52.9584 187.225 53.6238 186.904 54.1472C186.583 54.6697 185.971 54.9433 185.366 54.8344H185.367ZM139.916 43.6587L182.094 51.2348L170.262 35.9482L163.383 39.3321C162.795 39.6217 162.084 39.494 161.635 39.0179L156.383 33.4551L139.916 43.6587Z" fill="#C8DEF4"/>
<path d="M135.583 45.8916C135.382 45.8557 135.187 45.778 135.012 45.6597C134.524 45.3303 134.276 44.7463 134.381 44.1699L139.702 14.9107C139.802 14.3598 140.207 13.9121 140.747 13.7531C141.287 13.594 141.87 13.7521 142.256 14.1601L157.721 30.5398C158.027 30.8635 158.169 31.3056 158.112 31.7457C158.054 32.1849 157.802 32.5768 157.423 32.8115L136.638 45.691C136.318 45.8897 135.942 45.956 135.584 45.8916H135.583ZM142.108 18.3352L137.913 41.4079L154.304 31.2516L142.109 18.3352H142.108Z" fill="#C8DEF4"/>
<path d="M185.367 54.8345C185.01 54.7702 184.68 54.5771 184.45 54.2799L169.515 34.9848C169.243 34.6336 169.144 34.1783 169.245 33.7467C169.346 33.3142 169.636 32.9497 170.036 32.7529L190.291 22.7887C190.796 22.5407 191.399 22.5966 191.849 22.9326C192.3 23.2695 192.521 23.829 192.42 24.3798L187.099 53.6391C186.994 54.2155 186.557 54.6765 185.984 54.8156C185.777 54.8658 185.568 54.8696 185.367 54.8336V54.8345ZM172.985 34.6081L184.762 49.8236L188.957 26.7509L172.985 34.6081H172.985Z" fill="#C8DEF4"/>
<path d="M162.456 39.4617C162.149 39.4068 161.859 39.2554 161.634 39.0178L140.08 16.1884C139.64 15.7227 139.551 15.0279 139.858 14.4666C140.165 13.9053 140.799 13.6024 141.433 13.716L191.217 22.6589C191.849 22.7725 192.338 23.277 192.428 23.9092C192.518 24.5425 192.189 25.1615 191.613 25.4445L163.383 39.3311C163.089 39.4759 162.764 39.5166 162.456 39.4608V39.4617ZM145.341 17.4293L163.052 36.1877L186.247 24.7772L145.341 17.4293Z" fill="#C8DEF4"/>
<path d="M288.284 163.664L234.208 140.491C233.549 140.209 233.132 139.552 233.161 138.84C233.189 138.127 233.655 137.506 234.334 137.275L261.314 128.114C262.097 127.848 262.96 128.169 263.376 128.881L267.925 136.68L276.754 134.614C277.56 134.426 278.387 134.829 278.731 135.577L290.55 161.365C290.847 162.014 290.712 162.778 290.21 163.287C289.708 163.796 288.943 163.946 288.284 163.664ZM239.713 139.094L285.527 158.727L276.163 138.297L267.468 140.332C266.723 140.506 265.953 140.176 265.569 139.518L261.088 131.836L239.713 139.094Z" fill="#C8DEF4"/>
<path d="M234.208 140.491C233.99 140.397 233.789 140.259 233.621 140.078C233.155 139.578 233.03 138.851 233.301 138.224L247.088 106.442C247.348 105.844 247.924 105.442 248.579 105.403C249.234 105.364 249.855 105.696 250.183 106.26L263.376 128.881C263.637 129.328 263.681 129.867 263.5 130.351C263.318 130.834 262.927 131.211 262.435 131.378L235.455 140.538C235.04 140.679 234.595 140.657 234.207 140.49L234.208 140.491ZM248.91 110.956L238.038 136.018L259.313 128.794L248.91 110.956Z" fill="#C8DEF4"/>
<path d="M288.285 163.664C287.896 163.497 287.574 163.193 287.392 162.795L275.573 137.008C275.358 136.538 275.365 135.997 275.594 135.533C275.823 135.069 276.248 134.732 276.754 134.614L302.36 128.619C302.998 128.47 303.667 128.691 304.088 129.19C304.509 129.69 304.611 130.383 304.352 130.981L290.565 162.763C290.293 163.389 289.675 163.797 288.989 163.805C288.742 163.807 288.503 163.758 288.284 163.664H288.285ZM279.608 137.489L288.929 157.824L299.8 132.762L279.608 137.489Z" fill="#C8DEF4"/>
<path d="M266.383 140.236C266.049 140.093 265.76 139.846 265.569 139.518L247.181 107.991C246.806 107.347 246.888 106.537 247.385 105.98C247.882 105.424 248.682 105.248 249.37 105.542L303.446 128.715C304.133 129.01 304.553 129.709 304.488 130.45C304.422 131.191 303.886 131.808 303.156 131.978L267.468 140.332C267.095 140.419 266.716 140.38 266.383 140.237V140.236ZM252.817 110.775L267.926 136.68L297.25 129.816L252.817 110.775Z" fill="#C8DEF4"/>
<path d="M82.403 124.586L26.6146 148.74C25.9346 149.034 25.1432 148.882 24.6223 148.358C24.1014 147.834 23.9595 147.046 24.2642 146.374L36.3769 119.681C36.7283 118.906 37.5825 118.486 38.4158 118.678L47.5468 120.779L52.217 112.703C52.6436 111.965 53.5341 111.63 54.3445 111.902L82.2592 121.264C82.962 121.5 83.4458 122.14 83.4772 122.877C83.5086 123.612 83.081 124.293 82.402 124.586H82.403ZM29.4449 143.627L76.709 123.164L54.594 115.747L49.9943 123.701C49.6 124.382 48.8048 124.726 48.0353 124.549L39.0415 122.479L29.4449 143.626V143.627Z" fill="#C8DEF4"/>
<path d="M26.6145 148.74C26.3888 148.837 26.1421 148.889 25.8869 148.889C25.1774 148.884 24.5374 148.464 24.2546 147.818L9.8849 115.03C9.61444 114.413 9.71729 113.696 10.1506 113.179C10.5839 112.661 11.2734 112.43 11.9334 112.582L38.4157 118.678C38.9386 118.798 39.3805 119.146 39.6185 119.624C39.8566 120.102 39.8671 120.661 39.6462 121.148L27.5335 147.84C27.3468 148.251 27.0154 148.568 26.6145 148.741V148.74ZM14.5961 116.853L25.9279 142.708L35.4797 121.66L14.597 116.853H14.5961Z" fill="#C8DEF4"/>
<path d="M82.4026 124.586C82.0017 124.76 81.5427 124.785 81.1132 124.641L53.1985 115.279C52.6899 115.109 52.2843 114.721 52.0947 114.222C51.9043 113.723 51.95 113.165 52.2166 112.703L65.7616 89.2769C66.0997 88.6929 66.7397 88.3483 67.4158 88.3853C68.092 88.4231 68.69 88.8358 68.9605 89.453L83.3302 122.241C83.613 122.887 83.4873 123.639 83.0074 124.158C82.835 124.344 82.6283 124.489 82.4026 124.586ZM56.4145 112.596L78.4267 119.979L67.0949 94.1241L56.4145 112.597V112.596Z" fill="#C8DEF4"/>
<path d="M49.155 124.447C48.8103 124.597 48.4189 124.639 48.0341 124.55L11.1237 116.054C10.3704 115.881 9.81333 115.247 9.74285 114.481C9.67238 113.716 10.1038 112.991 10.8123 112.685L66.6007 88.5311C67.3102 88.2244 68.1369 88.4033 68.653 88.976C69.1692 89.5486 69.2568 90.3863 68.8721 91.0527L49.994 123.701C49.7969 124.042 49.4998 124.298 49.155 124.447ZM17.2186 113.798L47.5465 120.779L63.0581 93.9519L17.2186 113.798Z" fill="#C8DEF4"/>
<path d="M304.011 190.568H0.989258V195H304.011V190.568Z" fill="#153D6E"/>
<path d="M247.649 61.7253H64.6071C62.1846 61.7253 60.2207 63.6773 60.2207 66.0851V175.28C60.2207 177.688 62.1846 179.64 64.6071 179.64H247.649C250.071 179.64 252.035 177.688 252.035 175.28V66.0851C252.035 63.6773 250.071 61.7253 247.649 61.7253Z" fill="#153D6E"/>
<path d="M246.509 67.8835H65.7471V172.488H246.509V67.8835Z" fill="#C8DEF4"/>
<path d="M68.3117 67.8835H65.7471V172.488H68.3117V67.8835Z" fill="#211F44"/>
<path d="M246.509 67.8835H243.944V172.488H246.509V67.8835Z" fill="#211F44"/>
<path d="M65.7471 67.8843V70.4333L246.509 70.4333V67.8843L65.7471 67.8843Z" fill="#211F44"/>
<path d="M43.4722 180.916H268.783V181.293C268.783 186.699 264.368 191.087 258.929 191.087H53.3269C47.8881 191.087 43.4731 186.699 43.4731 181.293V180.916H43.4722Z" fill="#211F44"/>
<path d="M55.9327 178.667H256.324C257.54 178.667 258.527 179.648 258.527 180.857V180.916H53.728V180.857C53.728 179.648 54.7156 178.667 55.9317 178.667H55.9327Z" fill="#749DD3"/>
<g opacity="0.25">
<path d="M68.312 172.489L243.944 70.4333V172.489H68.312Z" fill="white"/>
</g>
<path d="M243.944 151.187H68.312V157.63H243.944V151.187Z" fill="white"/>
<path d="M106.816 85.188H78.6943C76.8608 85.188 75.3745 86.6653 75.3745 88.4876V118.751C75.3745 120.573 76.8608 122.051 78.6943 122.051H106.816C108.649 122.051 110.136 120.573 110.136 118.751V88.4876C110.136 86.6653 108.649 85.188 106.816 85.188Z" fill="white"/>
<path d="M119.728 101.725H91.7583C89.9248 101.725 88.4385 103.202 88.4385 105.024V135.127C88.4385 136.949 89.9248 138.427 91.7583 138.427H119.728C121.562 138.427 123.048 136.949 123.048 135.127V105.024C123.048 103.202 121.562 101.725 119.728 101.725Z" fill="#C8DEF4"/>
<path d="M119.728 139.225H91.7584C89.4852 139.225 87.6357 137.387 87.6357 135.127V105.025C87.6357 102.765 89.4852 100.927 91.7584 100.927H119.728C122.002 100.927 123.851 102.765 123.851 105.025V135.127C123.851 137.387 122.002 139.225 119.728 139.225ZM91.7584 102.523C90.3699 102.523 89.2404 103.645 89.2404 105.025V135.128C89.2404 136.508 90.3699 137.631 91.7584 137.631H119.728C121.117 137.631 122.246 136.508 122.246 135.128V105.025C122.246 103.645 121.117 102.523 119.728 102.523H91.7584Z" fill="white"/>
<path d="M142.18 159.08C142.077 159.08 141.972 159.057 141.874 159.008C140.191 158.171 138.238 157.192 136.341 156.154C136.009 155.973 135.889 155.56 136.071 155.23C136.253 154.901 136.669 154.782 137.001 154.963C138.876 155.989 140.816 156.961 142.486 157.792C142.824 157.96 142.962 158.368 142.792 158.704C142.672 158.943 142.43 159.08 142.18 159.08ZM129.7 151.817C129.556 151.817 129.409 151.772 129.285 151.677C127.474 150.3 125.953 148.902 124.637 147.404C124.388 147.121 124.418 146.691 124.702 146.444C124.987 146.197 125.42 146.226 125.668 146.509C126.923 147.938 128.378 149.275 130.116 150.597C130.416 150.825 130.474 151.252 130.244 151.55C130.11 151.725 129.906 151.817 129.7 151.817ZM130.997 148.484C130.682 148.484 130.398 148.266 130.329 147.947C130.249 147.58 130.483 147.218 130.853 147.139C131.553 146.988 132.243 146.789 132.905 146.549C134.071 146.125 135.195 145.534 136.248 144.793C136.556 144.575 136.983 144.648 137.202 144.955C137.421 145.262 137.348 145.686 137.039 145.903C135.888 146.714 134.655 147.362 133.374 147.827C132.653 148.089 131.902 148.305 131.141 148.468C131.093 148.479 131.044 148.484 130.995 148.484H130.997ZM122.794 148.327C122.742 148.327 122.687 148.322 122.634 148.308C120.569 147.817 118.576 147.022 116.711 145.945C116.384 145.757 116.272 145.34 116.463 145.015C116.652 144.691 117.071 144.58 117.398 144.769C119.149 145.78 121.018 146.526 122.953 146.986C123.321 147.073 123.547 147.44 123.46 147.806C123.384 148.118 123.104 148.328 122.795 148.328L122.794 148.327ZM110.834 140.684C110.635 140.684 110.437 140.598 110.301 140.432C109.001 138.839 107.861 137.045 106.909 135.1C106.743 134.762 106.885 134.355 107.225 134.191C107.565 134.026 107.975 134.167 108.14 134.505C109.045 136.358 110.13 138.063 111.364 139.576C111.602 139.867 111.557 140.296 111.263 140.533C111.137 140.635 110.984 140.684 110.833 140.684H110.834ZM121.013 140.587C120.72 140.587 120.448 140.397 120.359 140.104C119.832 138.382 119.565 136.569 119.565 134.713C119.565 134.403 119.572 134.088 119.588 133.777C119.607 133.402 119.927 133.114 120.305 133.132C120.682 133.151 120.973 133.47 120.954 133.844C120.94 134.132 120.932 134.425 120.932 134.713C120.932 136.433 121.18 138.114 121.667 139.708C121.778 140.068 121.573 140.447 121.212 140.557C121.146 140.577 121.079 140.587 121.013 140.587ZM141.894 139.788C141.797 139.788 141.699 139.767 141.605 139.724C141.263 139.566 141.114 139.161 141.274 138.82C142.111 137.033 142.536 135.192 142.536 133.35C142.536 133.283 142.536 133.215 142.534 133.148C142.527 132.772 142.828 132.463 143.206 132.456C143.21 132.456 143.215 132.456 143.219 132.456C143.591 132.456 143.896 132.753 143.902 133.124C143.903 133.2 143.904 133.275 143.904 133.35C143.904 135.393 143.437 137.426 142.515 139.395C142.399 139.643 142.152 139.789 141.894 139.789V139.788ZM104.917 127.7C104.598 127.7 104.312 127.476 104.246 127.153C103.836 125.121 103.596 123.023 103.535 120.916C103.525 120.54 103.822 120.227 104.2 120.216C104.577 120.205 104.893 120.501 104.904 120.877C104.963 122.907 105.193 124.929 105.588 126.886C105.663 127.254 105.423 127.612 105.052 127.686C105.006 127.696 104.962 127.7 104.917 127.7ZM122.659 126.715C122.531 126.715 122.402 126.679 122.286 126.604C121.969 126.399 121.88 125.978 122.086 125.664C123.362 123.718 125.013 122.29 126.995 121.419C127.34 121.268 127.744 121.423 127.898 121.767C128.05 122.11 127.894 122.512 127.548 122.664C125.813 123.426 124.361 124.686 123.233 126.407C123.102 126.606 122.883 126.715 122.659 126.715ZM140.291 126.304C140.098 126.304 139.906 126.224 139.77 126.066C138.475 124.56 136.846 123.382 135.059 122.66C134.709 122.519 134.54 122.122 134.683 121.774C134.825 121.426 135.225 121.258 135.574 121.4C137.563 122.204 139.373 123.511 140.81 125.182C141.056 125.468 141.022 125.896 140.735 126.141C140.606 126.25 140.448 126.303 140.29 126.303L140.291 126.304ZM104.8 113.385C104.764 113.385 104.727 113.382 104.69 113.377C104.317 113.317 104.063 112.969 104.123 112.598C104.439 110.637 104.888 108.587 105.459 106.503C105.558 106.14 105.934 105.926 106.299 106.025C106.663 106.123 106.879 106.497 106.78 106.86C106.222 108.897 105.783 110.9 105.474 112.812C105.42 113.147 105.129 113.385 104.799 113.385H104.8ZM108.723 99.5582C108.641 99.5582 108.559 99.544 108.478 99.5128C108.125 99.3784 107.949 98.9846 108.084 98.6334C108.777 96.8435 109.558 94.9694 110.472 92.905C110.624 92.5614 111.028 92.4052 111.374 92.5567C111.719 92.7081 111.876 93.1095 111.724 93.4531C110.818 95.4976 110.046 97.3518 109.361 99.1218C109.257 99.3926 108.998 99.5582 108.722 99.5582H108.723ZM114.561 86.39C114.462 86.39 114.362 86.3692 114.268 86.3238C113.927 86.1619 113.781 85.7568 113.944 85.417C114.629 83.9868 115.333 82.5339 116.013 81.1292L116.631 79.8533C116.795 79.5144 117.204 79.3724 117.545 79.5352C117.886 79.698 118.029 80.1041 117.865 80.443L117.247 81.7198C116.567 83.1226 115.864 84.5736 115.18 86.0019C115.063 86.2471 114.817 86.39 114.562 86.39H114.561ZM120.784 73.3913C120.688 73.3913 120.591 73.3714 120.499 73.3288C120.155 73.1717 120.005 72.7685 120.162 72.4268C120.309 72.1078 120.453 71.7935 120.594 71.484C119.812 71.5484 119.033 71.5967 118.26 71.6298C117.884 71.6459 117.563 71.3543 117.548 70.9786C117.531 70.6028 117.825 70.2857 118.203 70.2706C119.207 70.228 120.221 70.1579 121.239 70.0614C121.746 68.9265 122.217 67.8474 122.66 66.8025C122.806 66.456 123.207 66.2942 123.556 66.439C123.904 66.5848 124.068 66.9833 123.922 67.3297C123.57 68.1589 123.203 69.0088 122.812 69.8901C123.31 69.8295 123.809 69.7623 124.306 69.6885C124.68 69.6336 125.028 69.8891 125.084 70.2611C125.14 70.6331 124.882 70.9786 124.508 71.0335C123.728 71.149 122.946 71.2493 122.165 71.3335C121.922 71.873 121.669 72.4249 121.407 72.9928C121.292 73.2427 121.045 73.3894 120.785 73.3894L120.784 73.3913ZM109.97 71.3591C109.944 71.3591 109.919 71.3581 109.893 71.3553C107.791 71.1215 105.707 70.759 103.699 70.2763C103.331 70.1882 103.106 69.82 103.194 69.4556C103.283 69.0912 103.653 68.8659 104.02 68.9549C105.972 69.4244 107.999 69.7774 110.043 70.0046C110.418 70.0462 110.689 70.3832 110.647 70.7561C110.608 71.1035 110.312 71.361 109.968 71.361L109.97 71.3591ZM132.488 69.3013C132.19 69.3013 131.915 69.1063 131.83 68.8072C131.726 68.4457 131.936 68.0699 132.3 67.9667C134.251 67.4149 136.209 66.7608 138.122 66.0235C138.474 65.8872 138.87 66.0613 139.007 66.4116C139.144 66.7618 138.969 67.1555 138.617 67.2918C136.665 68.0443 134.666 68.7116 132.675 69.2748C132.613 69.2928 132.55 69.3013 132.488 69.3013ZM96.0345 67.6572C95.9412 67.6572 95.8459 67.6383 95.7545 67.5976C93.8594 66.7514 91.9966 65.7433 90.2177 64.6008C89.9005 64.3973 89.8091 63.9761 90.0148 63.66C90.2196 63.3448 90.6434 63.2539 90.9614 63.4584C92.6823 64.5639 94.4841 65.5388 96.3154 66.3567C96.6602 66.5109 96.8145 66.9132 96.6592 67.2559C96.5449 67.5076 96.2954 67.6572 96.0345 67.6572ZM145.888 63.9118C145.643 63.9118 145.406 63.7811 145.283 63.5511C145.106 63.2198 145.233 62.8072 145.566 62.6311C147.284 61.7224 149.029 60.721 150.899 59.5681C151.22 59.3703 151.642 59.4687 151.841 59.7877C152.04 60.1067 151.941 60.526 151.62 60.7238C149.724 61.8928 147.954 62.9094 146.209 63.8323C146.107 63.8862 145.997 63.9118 145.888 63.9118ZM126.256 60.0698C126.182 60.0698 126.107 60.0575 126.034 60.0329C125.677 59.9108 125.486 59.5246 125.608 59.1687C126.298 57.1706 126.902 55.2018 127.406 53.3163C127.503 52.9528 127.878 52.737 128.243 52.8335C128.609 52.9301 128.826 53.3021 128.729 53.6655C128.217 55.5813 127.602 57.5813 126.903 59.6098C126.806 59.8918 126.54 60.0698 126.256 60.0698ZM84.1151 59.605C83.9447 59.605 83.7733 59.5416 83.6409 59.4148C82.1257 57.9656 80.7087 56.3991 79.4278 54.7597C79.1964 54.4635 79.2497 54.0356 79.5487 53.8056C79.8468 53.5747 80.2773 53.6286 80.5087 53.9258C81.7496 55.5141 83.1228 57.0314 84.5904 58.4351C84.8627 58.6954 84.8703 59.1261 84.6084 59.3968C84.4742 59.535 84.2951 59.605 84.1151 59.605ZM158.164 56.2931C157.946 56.2931 157.733 56.1909 157.6 55.9997C157.385 55.6911 157.463 55.2671 157.773 55.0532C159.273 54.0214 160.791 52.9556 162.26 51.9258L162.848 51.5131C163.157 51.2964 163.584 51.3693 163.802 51.6769C164.02 51.9836 163.947 52.4085 163.638 52.6253L163.049 53.038C161.579 54.0697 160.058 55.1374 158.552 56.1729C158.433 56.2543 158.298 56.2941 158.164 56.2941V56.2931ZM75.5765 48.0687C75.3242 48.0687 75.0813 47.9296 74.9623 47.6891C74.0195 45.7904 73.2386 43.8282 72.6396 41.8566C72.53 41.4969 72.7348 41.1174 73.0967 41.0085C73.4586 40.8997 73.8405 41.1032 73.95 41.4628C74.5271 43.3625 75.2813 45.2547 76.1899 47.0862C76.3575 47.4232 76.2175 47.8311 75.8784 47.9968C75.7813 48.0441 75.6775 48.0668 75.5765 48.0668V48.0687ZM170.047 48.0649C169.826 48.0649 169.61 47.9589 169.477 47.763C169.267 47.4506 169.352 47.0285 169.666 46.8193C171.561 45.5585 173.281 44.4671 174.924 43.4837C175.247 43.2896 175.668 43.3938 175.863 43.7146C176.058 44.0365 175.953 44.4548 175.63 44.6479C174.007 45.621 172.304 46.701 170.427 47.9494C170.31 48.027 170.177 48.064 170.047 48.064V48.0649ZM129.731 46.1236C129.698 46.1236 129.666 46.1217 129.634 46.1169C129.259 46.0639 128.999 45.7203 129.052 45.3484C129.111 44.9347 129.166 44.5164 129.217 44.1046C129.408 42.5343 129.514 40.9148 129.531 39.2915C129.535 38.9186 129.84 38.6185 130.215 38.6185C130.217 38.6185 130.219 38.6185 130.222 38.6185C130.6 38.6223 130.903 38.9299 130.899 39.3057C130.881 40.9782 130.773 42.6469 130.576 44.2674C130.524 44.6877 130.468 45.1155 130.407 45.5386C130.358 45.8784 130.066 46.1236 129.73 46.1236H129.731ZM182.563 40.8571C182.304 40.8571 182.057 40.7103 181.941 40.4614C181.783 40.1207 181.933 39.7165 182.276 39.5584C184.204 38.6744 186.164 37.8944 188.102 37.2404C188.46 37.1192 188.849 37.3104 188.97 37.6663C189.091 38.0222 188.899 38.4084 188.541 38.5286C186.648 39.1675 184.733 39.9295 182.848 40.7936C182.756 40.8362 182.657 40.8561 182.561 40.8561L182.563 40.8571ZM216.502 39.1524C216.397 39.1524 216.29 39.1277 216.19 39.0766C214.42 38.1717 212.519 37.4581 210.541 36.9554C210.175 36.8627 209.954 36.4916 210.047 36.1282C210.141 35.7638 210.514 35.5451 210.88 35.6379C212.957 36.166 214.954 36.9157 216.816 37.8679C217.152 38.0402 217.284 38.45 217.111 38.7841C216.99 39.0189 216.75 39.1533 216.501 39.1533L216.502 39.1524ZM196.337 36.5532C196.007 36.5532 195.717 36.3156 195.662 35.9824C195.602 35.6114 195.855 35.2621 196.228 35.2015C198.367 34.856 200.48 34.6734 202.511 34.6592C202.89 34.6592 203.197 34.9592 203.199 35.335C203.202 35.7108 202.897 36.0174 202.519 36.0203C200.559 36.0335 198.517 36.2096 196.447 36.5447C196.41 36.5503 196.373 36.5532 196.337 36.5532ZM71.8644 34.2626C71.5025 34.2626 71.1996 33.9805 71.1815 33.617C71.153 33.0661 71.1396 32.5077 71.1396 31.9587C71.1396 30.9374 71.1892 29.9066 71.2863 28.8967C71.3368 28.3761 71.4025 27.8479 71.4834 27.3273C71.5406 26.9563 71.8901 26.7007 72.2643 26.7584C72.6377 26.8152 72.8938 27.1626 72.8367 27.5346C72.7596 28.0296 72.6967 28.5313 72.6491 29.0263C72.5558 29.9946 72.5091 30.9809 72.5091 31.9596C72.5091 32.4859 72.5224 33.0207 72.55 33.5489C72.5691 33.9237 72.2786 34.2436 71.9015 34.2626C71.8901 34.2626 71.8777 34.2626 71.8663 34.2626H71.8644ZM129.583 31.7864C129.254 31.7864 128.964 31.5498 128.909 31.2166C128.578 29.2062 128.113 27.2147 127.528 25.297C127.419 24.9373 127.623 24.5578 127.984 24.4489C128.346 24.3401 128.728 24.5436 128.837 24.9023C129.439 26.8768 129.917 28.927 130.258 30.9961C130.319 31.3671 130.067 31.7164 129.694 31.777C129.657 31.7826 129.618 31.7864 129.582 31.7864H129.583ZM74.5823 20.2766C74.4852 20.2766 74.3861 20.2558 74.2928 20.2122C73.9509 20.0532 73.8033 19.6481 73.9633 19.3073C74.848 17.4285 75.9356 15.6083 77.1946 13.8979C77.4174 13.595 77.846 13.5288 78.1507 13.7502C78.4554 13.9717 78.5221 14.3977 78.2993 14.7006C77.0927 16.34 76.0508 18.0844 75.2032 19.8838C75.087 20.1308 74.8404 20.2756 74.5833 20.2756L74.5823 20.2766ZM125.055 18.1781C124.809 18.1781 124.573 18.0466 124.45 17.8165C123.476 15.9897 122.371 14.2775 121.166 12.728C120.935 12.4308 120.99 12.0039 121.289 11.7739C121.588 11.5439 122.018 11.5988 122.249 11.896C123.502 13.507 124.649 15.2836 125.66 17.1786C125.837 17.5108 125.709 17.9226 125.376 18.0977C125.274 18.1516 125.164 18.1772 125.056 18.1772L125.055 18.1781ZM83.4104 9.01095C83.2133 9.01095 83.0171 8.92671 82.8819 8.76391C82.6409 8.47427 82.6828 8.04549 82.9743 7.80602C84.6227 6.45437 86.3884 5.27026 88.2225 4.2887C88.5549 4.11075 88.9701 4.2338 89.1492 4.56509C89.3282 4.89543 89.2044 5.30812 88.8711 5.48606C87.1159 6.42597 85.4246 7.55897 83.8456 8.85478C83.718 8.95889 83.5637 9.01001 83.4104 9.01001V9.01095ZM115.844 7.22674C115.702 7.22674 115.559 7.1832 115.437 7.09328C113.797 5.8855 112.038 4.88502 110.208 4.11927C109.859 3.97351 109.697 3.57501 109.843 3.22858C109.99 2.88215 110.391 2.7203 110.739 2.86606C112.67 3.6744 114.524 4.72884 116.252 6.00098C116.555 6.22436 116.619 6.6503 116.394 6.95224C116.26 7.13209 116.053 7.22769 115.844 7.22769V7.22674ZM96.2888 2.75532C95.9697 2.75532 95.684 2.53194 95.6183 2.20917C95.544 1.84097 95.784 1.48223 96.1545 1.4084C97.8192 1.07522 99.5019 0.906738 101.155 0.906738C101.603 0.906738 102.054 0.919043 102.498 0.943653C102.875 0.964477 103.165 1.28535 103.144 1.66018C103.123 2.03501 102.801 2.3237 102.423 2.30193C102.004 2.27921 101.578 2.26691 101.156 2.26691C99.5934 2.26691 98.002 2.42687 96.4259 2.74207C96.3802 2.75153 96.3345 2.75532 96.2897 2.75532H96.2888Z" fill="#B8181C"/>
<path d="M267.494 0L256.106 36.7615L254.281 42.6517L249.079 38.2882L235.48 26.8863L267.494 0Z" fill="#CF262A"/>
<path d="M267.494 0L227.927 22.7121L209.93 16.7839L267.494 0Z" fill="#CF262A"/>
<path d="M267.494 0L235.481 26.8863L229.328 39.1126L227.927 22.7121L267.494 0Z" fill="#B8181C"/>
<g style="mix-blend-mode:multiply" opacity="0.5">
<path d="M243.944 70.4333H68.312V76.9928H243.944V70.4333Z" fill="#749DD3"/>
</g>
<path d="M74.2532 74.1261C74.417 73.4362 73.9871 72.745 73.293 72.5821C72.5988 72.4193 71.9033 72.8466 71.7395 73.5365C71.5757 74.2264 72.0056 74.9176 72.6997 75.0805C73.3938 75.2433 74.0893 74.816 74.2532 74.1261Z" fill="#153D6E"/>
<path d="M77.8624 74.7435C78.3667 74.2423 78.3667 73.4296 77.8624 72.9284C77.3581 72.4271 76.5405 72.4271 76.0362 72.9284C75.5319 73.4296 75.5319 74.2423 76.0362 74.7435C76.5405 75.2447 77.3581 75.2447 77.8624 74.7435Z" fill="#153D6E"/>
<path d="M81.8121 74.744C82.3165 74.2428 82.3164 73.4301 81.8121 72.9289C81.3078 72.4276 80.4902 72.4276 79.9859 72.9289C79.4816 73.4301 79.4816 74.2428 79.9859 74.744C80.4902 75.2452 81.3078 75.2452 81.8121 74.744Z" fill="#153D6E"/>
<g style="mix-blend-mode:multiply" opacity="0.5">
<path d="M227.241 94.8635H168.72V163.422H227.241V94.8635Z" fill="#153D6E"/>
</g>
<path d="M223.123 82.3787H164.601V159.933H223.123V82.3787Z" fill="white"/>
<path d="M183.319 105.397H172.416C171.993 105.397 171.651 105.056 171.651 104.636V93.7996C171.651 93.3794 171.994 93.0396 172.416 93.0396H183.319C183.742 93.0396 184.084 93.3803 184.084 93.7996V104.636C184.084 105.057 183.741 105.397 183.319 105.397ZM173.181 103.876H182.555V94.5597H173.181V103.876Z" fill="#153D6E"/>
<path d="M183.319 127.334H172.416C171.993 127.334 171.651 126.994 171.651 126.574V115.737C171.651 115.317 171.994 114.977 172.416 114.977H183.319C183.742 114.977 184.084 115.318 184.084 115.737V126.574C184.084 126.994 183.741 127.334 183.319 127.334ZM173.181 125.814H182.555V116.497H173.181V125.814Z" fill="#153D6E"/>
<path d="M183.319 149.272H172.416C171.993 149.272 171.651 148.931 171.651 148.512V137.675C171.651 137.255 171.994 136.915 172.416 136.915H183.319C183.742 136.915 184.084 137.256 184.084 137.675V148.512C184.084 148.932 183.741 149.272 183.319 149.272ZM173.181 147.752H182.555V138.435H173.181V147.752Z" fill="#153D6E"/>
<path d="M213.213 97.524H189.466C189.044 97.524 188.702 97.1833 188.702 96.764C188.702 96.3447 189.045 96.0039 189.466 96.0039H213.213C213.636 96.0039 213.977 96.3447 213.977 96.764C213.977 97.1833 213.635 97.524 213.213 97.524Z" fill="#153D6E"/>
<path d="M216.68 102.433H189.467C189.045 102.433 188.703 102.092 188.703 101.673C188.703 101.253 189.045 100.913 189.467 100.913H216.68C217.103 100.913 217.445 101.253 217.445 101.673C217.445 102.092 217.102 102.433 216.68 102.433Z" fill="#153D6E"/>
<path d="M207.328 117.734H189.466C189.044 117.734 188.702 117.394 188.702 116.974C188.702 116.555 189.045 116.214 189.466 116.214H207.328C207.751 116.214 208.093 116.555 208.093 116.974C208.093 117.394 207.75 117.734 207.328 117.734Z" fill="#153D6E"/>
<path d="M214.894 121.915H189.466C189.044 121.915 188.702 121.575 188.702 121.155C188.702 120.736 189.045 120.395 189.466 120.395H214.894C215.316 120.395 215.658 120.736 215.658 121.155C215.658 121.575 215.315 121.915 214.894 121.915Z" fill="#153D6E"/>
<path d="M214.894 146.329H189.466C189.044 146.329 188.702 145.988 188.702 145.569C188.702 145.15 189.045 144.809 189.466 144.809H214.894C215.316 144.809 215.658 145.15 215.658 145.569C215.658 145.988 215.315 146.329 214.894 146.329Z" fill="#153D6E"/>
<path d="M204.124 141.377H189.466C189.044 141.377 188.702 141.036 188.702 140.617C188.702 140.198 189.045 139.857 189.466 139.857H204.124C204.547 139.857 204.888 140.198 204.888 140.617C204.888 141.036 204.546 141.377 204.124 141.377Z" fill="#153D6E"/>
<path d="M199.839 126.097H189.466C189.044 126.097 188.702 125.756 188.702 125.337C188.702 124.918 189.045 124.577 189.466 124.577H199.839C200.262 124.577 200.604 124.918 200.604 125.337C200.604 125.756 200.261 126.097 199.839 126.097Z" fill="#153D6E"/>
<path d="M177.123 102.941C177.118 102.941 177.111 102.941 177.104 102.941C176.824 102.935 176.57 102.776 176.442 102.528L175.108 99.9444C174.916 99.5706 175.064 99.1124 175.44 98.9212C175.816 98.73 176.277 98.8767 176.469 99.2506L177.162 100.592L179.894 95.8772C180.104 95.5137 180.572 95.3888 180.938 95.598C181.304 95.8071 181.43 96.2719 181.219 96.6363L177.785 102.562C177.648 102.797 177.396 102.942 177.122 102.942L177.123 102.941Z" fill="#B8181C"/>
<path d="M177.123 124.878C177.118 124.878 177.111 124.878 177.104 124.878C176.824 124.871 176.57 124.712 176.442 124.465L175.108 121.881C174.916 121.507 175.064 121.049 175.44 120.858C175.816 120.667 176.277 120.814 176.469 121.187L177.162 122.529L179.894 117.814C180.104 117.45 180.572 117.326 180.938 117.535C181.304 117.744 181.43 118.209 181.219 118.573L177.785 124.498C177.648 124.734 177.396 124.879 177.122 124.879L177.123 124.878Z" fill="#B8181C"/>
</svg>
