<svg width="220" height="219" viewBox="0 0 220 219" fill="none" xmlns="http://www.w3.org/2000/svg">
<g clip-path="url(#clip0_37_2871)">
<g style="mix-blend-mode:multiply" opacity="0.07">
<path d="M110 203.798C162.288 203.798 204.676 161.749 204.676 109.88C204.676 58.0097 162.288 15.9609 110 15.9609C57.7119 15.9609 15.324 58.0097 15.324 109.88C15.324 161.749 57.7119 203.798 110 203.798Z" fill="#653DFF"/>
</g>
<path opacity="0.13" d="M110 0.759766C49.2482 0.759766 0 49.6139 0 109.88C0 170.146 49.2482 219 110 219C170.752 219 220 170.146 220 109.88C220 49.6139 170.752 0.759766 110 0.759766ZM110 211.694C53.3167 211.694 7.36501 166.11 7.36501 109.88C7.36501 53.65 53.3167 8.06586 110 8.06586C166.683 8.06586 212.635 53.65 212.635 109.88C212.635 166.11 166.683 211.694 110 211.694Z" fill="#72B5F9"/>
<path opacity="0.19" d="M110 203.798C162.288 203.798 204.676 161.749 204.676 109.88C204.676 58.0097 162.288 15.9609 110 15.9609C57.7119 15.9609 15.324 58.0097 15.324 109.88C15.324 161.749 57.7119 203.798 110 203.798Z" fill="#72B5F9"/>
<path d="M177.164 61.901L145.41 30.3375L208.42 29.8779L177.164 61.901Z" fill="#CF262A"/>
<path d="M155.574 63.605L156.503 41.4015L208.42 29.8779L155.574 63.605Z" fill="#B8181C"/>
<path d="M155.574 63.6048L162.13 46.9033L169.766 54.5476L155.574 63.6048Z" fill="#CF262A"/>
<path d="M208.42 29.8779L162.13 46.9035L177.164 61.901L208.42 29.8779Z" fill="#CF262A"/>
<path d="M114.801 50.8113C111.962 48.7927 108.141 48.7927 105.302 50.8113L46.8877 92.37L47.016 170.222L173.072 170.462L173.111 92.2698L114.8 50.8113H114.801Z" fill="#153D6E"/>
<path d="M155.111 67.8076H64.888C60.7096 67.8076 57.3223 71.1678 57.3223 75.3129V148.19C57.3223 152.335 60.7096 155.695 64.888 155.695H155.111C159.289 155.695 162.676 152.335 162.676 148.19V75.3129C162.676 71.1678 159.289 67.8076 155.111 67.8076Z" fill="white"/>
<path d="M173.111 92.27L173.073 170.462H46.8889V92.3714L109.993 142.512L173.111 92.27Z" fill="#1E5497"/>
<path d="M101.529 104.327C102.789 101.298 104.474 99.0256 106.582 97.5113C108.691 95.9971 110.763 95.2394 112.799 95.2394C114.204 95.2394 115.416 95.5893 116.434 96.2846C117.452 96.9822 118.288 97.8837 118.943 98.989C119.597 100.096 120.094 101.369 120.433 102.812C120.772 104.254 120.942 105.696 120.942 107.139C120.942 108.774 120.772 110.24 120.433 111.538C120.676 111.538 120.893 111.551 121.088 111.574C121.282 111.599 121.499 111.611 121.742 111.611C122.76 111.611 123.607 111.431 124.287 111.07C124.965 110.709 125.51 110.217 125.923 109.591C126.334 108.967 126.638 108.245 126.831 107.428C127.025 106.611 127.122 105.745 127.122 104.832C127.122 102.091 126.697 99.7715 125.85 97.8719C125.002 95.9735 123.875 94.4463 122.469 93.2926C121.063 92.139 119.464 91.3094 117.671 90.8038C115.878 90.2995 114.036 90.0461 112.147 90.0461C109.092 90.0461 106.378 90.5752 104.003 91.6323C101.628 92.6905 99.6284 94.121 98.0057 95.924C96.3807 97.727 95.1334 99.808 94.2614 102.162C93.3895 104.519 92.9524 106.972 92.9524 109.519C92.9524 112.693 93.4121 115.362 94.3339 117.525C95.2545 119.689 96.4781 121.445 98.0057 122.79C99.5322 124.137 101.252 125.099 103.167 125.675C105.081 126.253 107.008 126.54 108.948 126.54C111.662 126.54 114.4 126.132 117.163 125.315C119.926 124.498 122.494 123.512 124.87 122.358C125.5 122.118 126.033 121.997 126.469 121.997C127.342 121.997 128.044 122.286 128.578 122.862C129.11 123.44 129.377 124.088 129.377 124.81C129.377 125.868 128.625 126.865 127.124 127.803C125.621 128.741 123.79 129.559 121.634 130.256C119.477 130.952 117.236 131.506 114.91 131.915C112.582 132.322 110.595 132.528 108.948 132.528C105.264 132.528 102.041 131.866 99.278 130.544C96.5149 129.222 94.2246 127.479 92.4071 125.316C90.5896 123.152 89.2318 120.712 88.3362 117.995C87.4381 115.279 86.9915 112.527 86.9915 109.737C86.9915 106.228 87.621 102.911 88.8814 99.7844C90.1418 96.6593 91.8737 93.9313 94.0797 91.5981C96.2844 89.266 98.9026 87.4277 101.932 86.0808C104.961 84.7351 108.221 84.061 111.711 84.061C114.619 84.061 117.357 84.5065 119.926 85.395C122.494 86.2859 124.749 87.5951 126.688 89.3261C128.625 91.0572 130.165 93.209 131.304 95.7814C132.442 98.3539 133.012 101.323 133.012 104.689C133.012 106.18 132.817 107.695 132.43 109.233C132.042 110.772 131.412 112.142 130.54 113.344C129.668 114.546 128.528 115.533 127.122 116.301C125.716 117.07 123.996 117.455 121.961 117.455C121.33 117.455 120.603 117.418 119.78 117.346C118.956 117.274 118.301 117.094 117.816 116.805C116.798 118.056 115.587 119.077 114.181 119.87C112.775 120.663 111.346 121.06 109.892 121.06C108.729 121.06 107.59 120.772 106.474 120.196C105.359 119.618 104.378 118.825 103.529 117.815C102.681 116.805 102.003 115.628 101.493 114.281C100.985 112.935 100.73 111.468 100.73 109.882C100.73 108.007 100.996 106.156 101.529 104.328V104.327ZM108.654 103.462C107.927 104.327 107.406 105.326 107.091 106.455C106.775 107.585 106.618 108.655 106.618 109.664C106.618 110.194 106.679 110.771 106.8 111.395C106.92 112.021 107.115 112.597 107.382 113.126C107.648 113.657 108.011 114.1 108.472 114.46C108.932 114.821 109.501 115.001 110.181 115.001C111.052 115.001 111.791 114.761 112.398 114.28C113.004 113.8 113.501 113.175 113.889 112.405C114.276 111.637 114.554 110.771 114.725 109.809C114.895 108.848 114.98 107.887 114.98 106.924C114.98 106.252 114.943 105.567 114.87 104.869C114.798 104.173 114.664 103.547 114.47 102.994C114.275 102.442 114.021 101.985 113.706 101.624C113.39 101.263 112.991 101.083 112.506 101.083C111.827 101.083 111.113 101.372 110.362 101.948C109.61 102.525 109.041 103.03 108.654 103.462Z" fill="#B8181C"/>
<path d="M104.682 129.221L47.1753 170.461H173.073L114.764 129.221C111.755 127.063 107.691 127.063 104.682 129.221Z" fill="#184A87"/>
<path d="M145.38 51.5909C143.88 51.5909 142.688 51.34 141.822 50.8415L142.468 50.1109C144.407 51.228 148.585 50.4467 150.031 50.0508L150.388 50.9004C150.33 50.9157 148.95 51.2905 147.226 51.4802C146.566 51.5532 145.95 51.5898 145.378 51.5898L145.38 51.5909Z" fill="#B8181C"/>
<path d="M34.2973 155.719C32.5428 155.719 30.8346 155.651 29.219 155.518L29.333 154.625C30.9106 154.755 32.582 154.821 34.2985 154.821C36.015 154.821 37.7315 154.759 39.5336 154.634L39.6286 155.528C37.7957 155.655 36.0019 155.719 34.2985 155.719H34.2973ZM19.0814 153.5C15.7303 152.346 12.8378 150.724 10.4857 148.681L11.3006 148.07C13.5458 150.021 16.3112 151.57 19.5174 152.676L19.0802 153.5H19.0814ZM5.07008 141.452C3.93207 138.994 3.18606 136.225 2.85107 133.219L3.95939 133.139C4.28488 136.065 5.0095 138.756 6.11187 141.139L5.07008 141.454V141.452ZM61.7118 135.928L61.5348 135.042C64.8858 134.607 68.0267 133.492 70.6175 131.817L71.3136 132.517C68.5731 134.289 65.2529 135.469 61.7118 135.928ZM51.2558 135.265C47.9344 134.414 44.8768 133 42.1648 131.061L42.9025 130.39C45.4969 132.244 48.4203 133.596 51.5932 134.409L51.257 135.265H51.2558ZM77.5941 125.742L76.5713 125.388C77.8186 123.04 78.5301 120.37 78.6869 117.451L79.7976 117.49C79.6349 120.517 78.8936 123.293 77.5929 125.742H77.5941ZM4.02116 124.896L2.91403 124.813C3.22408 122.088 3.79665 119.304 4.6163 116.538L5.69848 116.746C4.8919 119.471 4.32764 122.213 4.02235 124.896H4.02116ZM35.7347 124.402C34.1654 122.025 32.9811 119.357 32.2161 116.47L33.3042 116.283C34.0478 119.088 35.1954 121.678 36.7171 123.98L35.7358 124.402H35.7347ZM77.8305 109.279C77.1225 106.433 76.0331 103.825 74.5922 101.528L75.5853 101.123C77.0714 103.491 78.1939 106.177 78.9209 109.102L77.8305 109.279ZM8.80842 108.884L7.78207 108.539C8.44729 107.249 9.12796 106.12 9.80388 105.182C10.7637 103.851 11.8934 102.548 13.1597 101.31L14.0174 101.882C12.7891 103.081 11.695 104.345 10.7661 105.634C10.1139 106.538 9.45583 107.631 8.80961 108.884H8.80842ZM31.0828 108.123C31.0579 107.476 31.0448 106.82 31.0448 106.175C31.0448 104.037 31.1826 101.875 31.4558 99.7453L32.5618 99.8372C32.2933 101.936 32.1567 104.068 32.1567 106.175C32.1567 106.811 32.1686 107.457 32.1935 108.094L31.0816 108.123H31.0828ZM21.437 96.2784L20.7801 95.5537C23.5574 93.9146 26.5997 92.504 29.8248 91.3633L30.2715 92.1847C27.1212 93.2994 24.149 94.677 21.437 96.2773V96.2784ZM68.5648 95.0258C66.1058 93.2005 63.2287 91.7675 60.0119 90.7659L60.4122 89.9292C63.7597 90.9721 66.7556 92.4651 69.3179 94.3659L68.5648 95.027V95.0258ZM34.2854 91.6909L33.2032 91.4823C33.9968 88.8003 35.0219 86.1041 36.249 83.4692L37.2908 83.785C36.0803 86.3858 35.0682 89.0454 34.2854 91.6921V91.6909ZM39.9838 89.7124L39.7676 88.8321C42.5592 88.3867 45.3484 88.1604 48.058 88.1604H48.0616C48.7695 88.1604 49.4811 88.1757 50.1772 88.2064L50.1166 89.102C49.4407 89.0725 48.7493 89.0572 48.0627 89.0572H48.0592C45.4208 89.0572 42.7041 89.2775 39.9838 89.7112V89.7124ZM41.4604 76.222L40.472 75.8108C42.0448 73.3515 43.8184 70.9216 45.7428 68.5883L46.6693 69.0856C44.7675 71.3918 43.0153 73.7934 41.4604 76.2232V76.222ZM52.8227 62.4512L51.9721 61.8738C54.6924 59.266 56.5966 57.826 56.8271 57.654C57.5541 56.9988 58.2965 56.3542 59.0354 55.7355L59.8361 56.3577C59.1007 56.9728 58.3619 57.6163 57.6384 58.2679L57.6004 58.2997C57.5814 58.3139 55.6154 59.7751 52.8239 62.4512H52.8227ZM67.4042 50.7921L66.714 50.0886C69.5056 48.3057 72.4124 46.7337 75.3537 45.4163L75.8942 46.2011C73.0052 47.4961 70.1495 49.041 67.4042 50.7933V50.7921ZM134.522 48.0865C131.474 46.7408 128.352 45.5565 125.244 44.5666L125.653 43.7323C128.803 44.7363 131.967 45.9359 135.055 47.2993L134.522 48.0865ZM85.2311 42.878L84.8807 42.026C88.1795 41.1434 91.5971 40.52 95.0408 40.1747L95.1774 41.0656C91.8062 41.4038 88.4598 42.013 85.2299 42.878H85.2311ZM115.483 42.0767C112.091 41.4285 108.692 41.0114 105.379 40.837L105.452 39.9414C108.826 40.1193 112.288 40.5436 115.74 41.2035L115.483 42.0767Z" fill="#B8181C"/>
</g>
<defs>
<clipPath id="clip0_37_2871">
<rect width="220" height="218.24" fill="white" transform="translate(0 0.759766)"/>
</clipPath>
</defs>
</svg>
