<svg width="390" height="620" viewBox="0 0 390 620" fill="none" xmlns="http://www.w3.org/2000/svg">
<path opacity="0.4" d="M312 215.846L329.313 215.846L329.313 234.88L346.559 234.88L346.559 215.846L363.872 215.846L363.872 197.034L346.559 197.034L346.559 178L329.313 178L329.313 197.034L312 197.034L312 215.846Z" fill="white"/>
<path opacity="0.3" d="M306 42.601L335.625 42.601L335.625 75.5933L365.134 75.5933L365.134 42.601L394.759 42.601L394.759 9.99243L365.134 9.99243L365.134 -22.9998L335.625 -22.9998L335.625 9.99243L306 9.99242L306 42.601Z" fill="white"/>
<path opacity="0.3" d="M-9.00004 594.621L13.3147 594.621L13.3147 619.577L35.5426 619.577L35.5426 594.621L57.8574 594.621L57.8574 569.956L35.5427 569.956L35.5427 545L13.3147 545L13.3147 569.956L-9.00004 569.956L-9.00004 594.621Z" fill="white"/>
<path opacity="0.5" d="M43.0002 256.165L59.5439 256.165L59.5439 274.353L76.0232 274.353L76.0232 256.165L92.5669 256.165L92.5669 238.188L76.0232 238.188L76.0232 220L59.5439 220L59.5439 238.188L43.0002 238.188L43.0002 256.165Z" fill="white"/>
<path opacity="0.3" d="M328 478.462L350.7 478.462L350.7 503.841L373.311 503.841L373.311 478.462L396.01 478.462L396.01 453.379L373.311 453.379L373.311 428L350.7 428L350.7 453.379L328 453.379L328 478.462Z" fill="white"/>
<path opacity="0.5" d="M273 617.165L289.544 617.165L289.544 635.353L306.023 635.353L306.023 617.165L322.567 617.165L322.567 599.188L306.023 599.188L306.023 581L289.544 581L289.544 599.188L273 599.188L273 617.165Z" fill="white"/>
<path opacity="0.5" d="M0.000233573 63.8668L10.3881 63.8668L10.3881 74.8643L20.7356 74.8643L20.7356 63.8668L31.1235 63.8668L31.1235 52.9973L20.7356 52.9973L20.7356 41.9999L10.3881 41.9999L10.3881 52.9973L0.00023444 52.9973L0.000233573 63.8668Z" fill="white"/>
</svg>
